<svg xmlns="http://www.w3.org/2000/svg" xmlns:xlink="http://www.w3.org/1999/xlink" width="650" height="265" version="1.1"><rect id="backgroundrect" width="100%" height="100%" x="0" y="0" fill="none" stroke="none"/>
    <!-- Generator: Sketch 59 (86127) - https://sketch.com -->
    <title>Group 32</title>
    <desc>Created with Sketch.</desc>
    
<g class="currentLayer" style=""><title>Layer 1</title><g id="Website" stroke="#0398fc" stroke-width="1" fill="#ffffff" fill-rule="evenodd" class="selected" fill-opacity="1" stroke-opacity="1">
        <g id="Group-32" fill="#ffffff" fill-opacity="1" stroke="#0398fc" stroke-opacity="1">
            <path d="M126.007899,41.7650154 C126.007899,37.7383476 129.263975,34.4816286 133.298472,34.4816286 L386.871877,34.4816286 C390.898902,34.4816286 394.162451,37.7405 394.162451,41.7650154 L394.162451,215.307477 C394.162451,219.334145 390.906375,222.590864 386.871877,222.590864 L133.298472,222.590864 C129.271447,222.590864 126.007899,219.331993 126.007899,215.307477 L126.007899,41.7650154 z" id="Case" stroke="#0398fc" stroke-width="2.08142999" fill="#ffffff" fill-opacity="1" stroke-opacity="1"/>
            <path d="M142.409667,53.7365341 C142.409667,52.0123794 143.813338,50.612711 145.535934,50.612711 L374.37407,50.612711 C376.102828,50.612711 377.500337,52.004393 377.500337,53.7365341 L377.500337,183.042016 C377.500337,184.766171 376.096666,186.165839 374.37407,186.165839 L145.535934,186.165839 C143.807176,186.165839 142.409667,184.774157 142.409667,183.042016 L142.409667,53.7365341 z" id="Case" stroke="#0398fc" stroke-width="2.08142999" fill="#ffffff" fill-opacity="1" stroke-opacity="1"/>
            <path d="M240.989547,222.590864 L279.441148,222.590864 L282.037136,256.15392299999996 L238.39356,256.15392299999996 L240.989547,222.590864 z" id="Case" stroke="#0398fc" stroke-width="2.08142999" fill="#ffffff" fill-opacity="1" stroke-opacity="1"/>
            <path d="M222.334407,256.411496 L222.334407,259.926514 C222.334407,262.006825 224.024461,263.699106 226.104395,263.699106 L294.3263,263.699106 C296.402444,263.699106 298.096288,262.006629 298.096288,259.926514 L298.096288,256.411496 C298.096288,256.265769 297.983625,256.15392299999996 297.834738,256.15392299999996 L222.595957,256.15392299999996 C222.450148,256.15392299999996 222.334407,256.269384 222.334407,256.411496 z" id="Keyboard" stroke="#0398fc" stroke-width="2.08142999" fill="#ffffff" fill-opacity="1" stroke-opacity="1"/>
            <ellipse id="Oval-6" stroke="#0398fc" stroke-width="2.08142999" cx="260.2153625488281" cy="205.80934143066406" rx="4.816391944885254" ry="4.81330680847168" fill="#ffffff" fill-opacity="1" stroke-opacity="1"/>
            <rect id="Case" stroke="#0398fc" stroke-width="2.08142999" fill="#ffffff" x="101.27507019042969" y="162.749755859375" width="51.54707717895508" height="100.94935607910156" rx="6.244289875030518" fill-opacity="1" stroke-opacity="1"/>
            <path d="M101.275074,173.937438 L152.822153,173.937438 L152.822153,248.686792 L101.275074,248.686792 L101.275074,173.937438 z" id="Case" stroke="#0398fc" stroke-width="2.08142999" fill="#ffffff" fill-opacity="1" stroke-opacity="1"/>
            <rect id="Rectangle-11" fill="#ffffff" x="114.81237030029297" y="167.17279052734375" width="24.732824325561523" height="2.081429958343506" rx="1.040714979171753" fill-opacity="1" stroke="#0398fc" stroke-opacity="1"/>
            <rect id="Rectangle-11" fill="#ffffff" x="124.184814453125" y="253.0317840576172" width="5.935877799987793" height="5.932075500488281" rx="2.9660377502441406" fill-opacity="1" stroke="#0398fc" stroke-opacity="1"/>
            <ellipse id="Oval-6" stroke="#0398fc" stroke-width="2.08142999" fill="#ffffff" cx="115.853759765625" cy="211.14300537109375" rx="3.9051828384399414" ry="3.9026811122894287" fill-opacity="1" stroke-opacity="1"/>
            <rect id="Rectangle-11" fill="#ffffff" x="124.96585083007812" y="204.37835693359375" width="18.224185943603516" height="2.081429958343506" rx="1.040714979171753" fill-opacity="1" stroke="#0398fc" stroke-opacity="1"/>
            <rect id="Rectangle-11" fill="#ffffff" x="124.96585083007812" y="210.10227966308594" width="13.0172758102417" height="2.081429958343506" rx="1.040714979171753" fill-opacity="1" stroke="#0398fc" stroke-opacity="1"/>
            <rect id="Rectangle-11" fill="#ffffff" x="124.96585083007812" y="215.8262176513672" width="7.810365676879883" height="2.081429958343506" rx="1.040714979171753" fill-opacity="1" stroke="#0398fc" stroke-opacity="1"/>
            <ellipse id="Oval-7" stroke="#0398fc" stroke-width="2.08142999" fill="#ffffff" cx="74.84933471679688" cy="171.72592163085938" rx="39.96370315551758" ry="39.93743896484375" fill-opacity="1" stroke-opacity="1"/>
            <rect id="Case" stroke="#0398fc" stroke-width="2.08142999" fill="#ffffff" x="319.7049560546875" y="123.46276092529297" width="192.65435791015625" height="129.308837890625" rx="6.244289875030518" fill-opacity="1" stroke-opacity="1"/>
            <path d="M306.42601,253.02579 L306.42601,258.23535300000003 C306.42601,261.248347 308.874337,263.699106 311.88835,263.699106 L520.175933,263.699106 C523.187441,263.699106 525.638273,261.249893 525.638273,258.23535300000003 L525.638273,253.02579 C525.638273,252.884133 525.525092,252.771599 525.379413,252.771599 L306.68487,252.771599 C306.538643,252.771599 306.42601,252.8841 306.42601,253.02579 z" id="Keyboard" stroke="#0398fc" stroke-width="2.08142999" fill="#ffffff" fill-opacity="1" stroke-opacity="1"/>
            <path d="M430.428848,252.888735 L401.270407,252.88823 C402.433781,255.961493 405.402425,258.091813 408.808279,258.091813 L422.891133,258.091813 C426.2974,258.091813 429.265465,255.961765 430.428848,252.888735 z" id="Notch" stroke="#0398fc" stroke-width="2.08142999" fill="#ffffff" fill-opacity="1" stroke-opacity="1"/>
            <rect id="Screen" stroke="#0398fc" stroke-width="2.08142999" fill="#ffffff" x="328.2950439453125" y="135.691162109375" width="175.31971740722656" height="105.07308197021484" rx="2.081429958343506" fill-opacity="1" stroke-opacity="1"/>
            <ellipse id="Oval-3" fill="#ffffff" cx="254.35757446289062" cy="52.95431900024414" rx="1.3017276525497437" ry="1.300893783569336" fill-opacity="1" stroke="#0398fc" stroke-opacity="1"/>
            <path d="M179.899422,14.9682224 L300.177718,14.9682224 L300.177718,130.22779400000002 C300.177718,134.24909 296.908511,137.512413 292.886465,137.512413 L187.190674,137.512413 C183.165634,137.512413 179.899422,134.247907 179.899422,130.22779400000002 L179.899422,14.9682224 z" id="Case" stroke="#0398fc" stroke-width="2.08142999" fill="#ffffff" fill-opacity="1" stroke-opacity="1"/>
            <path d="M179.899422,9.23775036 C179.899422,5.21962044 183.168858,1.959285 187.190674,1.959285 L292.886465,1.959285 C296.913475,1.959285 300.177718,5.21613142 300.177718,9.23775036 L300.177718,17.0496524 L179.899422,17.0496524 L179.899422,9.23775036 z" id="Case" stroke="#0398fc" stroke-width="2.08142999" fill="#ffffff" fill-opacity="1" stroke-opacity="1"/>
            <ellipse id="Oval-5" fill="#ffffff" cx="191.09361267089844" cy="9.50446891784668" rx="2.343109607696533" ry="2.341608762741089" fill-opacity="1" stroke="#0398fc" stroke-opacity="1"/>
            <ellipse id="Oval-5" fill="#ffffff" cx="198.9039764404297" cy="9.50446891784668" rx="2.343109607696533" ry="2.341608762741089" fill-opacity="1" stroke="#0398fc" stroke-opacity="1"/>
            <ellipse id="Oval-5" fill="#ffffff" cx="206.71434020996094" cy="9.50446891784668" rx="2.343109607696533" ry="2.341608762741089" fill-opacity="1" stroke="#0398fc" stroke-opacity="1"/>
            <rect id="Rectangle-11" fill="#ffffff" x="194.4781036376953" y="90.94041442871094" width="4.686219215393066" height="2.081429958343506" rx="1.040714979171753" fill-opacity="1" stroke="#0398fc" stroke-opacity="1"/>
            <rect id="Rectangle-11" fill="#ffffff" x="194.4781036376953" y="38.904666900634766" width="4.686219215393066" height="2.081429958343506" rx="1.040714979171753" fill-opacity="1" stroke="#0398fc" stroke-opacity="1"/>
            <path d="M203.329184,38.9046673 L210.359847,38.9046673 C210.934619,38.9046673 211.400562,39.3706113 211.400562,39.9453823 C211.400562,40.5201533 210.934619,40.9860973 210.359847,40.9860973 L203.329184,40.9860973 C202.754413,40.9860973 202.288469,40.5201533 202.288469,39.9453823 C202.288469,39.3706113 202.754413,38.9046673 203.329184,38.9046673 z" id="Rectangle-11" fill="#ffffff" fill-opacity="1" stroke="#0398fc" stroke-opacity="1"/>
            <path d="M215.044733,38.9046673 L222.075396,38.9046673 C222.650167,38.9046673 223.116111,39.3706113 223.116111,39.9453823 C223.116111,40.5201533 222.650167,40.9860973 222.075396,40.9860973 L215.044733,40.9860973 C214.469962,40.9860973 214.004018,40.5201533 214.004018,39.9453823 C214.004018,39.3706113 214.469962,38.9046673 215.044733,38.9046673 z" id="Rectangle-11" fill="#ffffff" fill-opacity="1" stroke="#0398fc" stroke-opacity="1"/>
            <path d="M226.760281,38.9046673 L239.778891,38.9046673 C240.353662,38.9046673 240.819606,39.3706113 240.819606,39.9453823 C240.819606,40.5201533 240.353662,40.9860973 239.778891,40.9860973 L226.760281,40.9860973 C226.18551,40.9860973 225.719566,40.5201533 225.719566,39.9453823 C225.719566,39.3706113 226.18551,38.9046673 226.760281,38.9046673 z" id="Rectangle-11" fill="#ffffff" fill-opacity="1" stroke="#0398fc" stroke-opacity="1"/>
            <path d="M244.463776,38.9046673 L263.730679,38.9046673 C264.30545,38.9046673 264.771394,39.3706113 264.771394,39.9453823 C264.771394,40.5201533 264.30545,40.9860973 263.730679,40.9860973 L244.463776,40.9860973 C243.889005,40.9860973 243.423061,40.5201533 243.423061,39.9453823 C243.423061,39.3706113 243.889005,38.9046673 244.463776,38.9046673 z" id="Rectangle-11" fill="#ffffff" fill-opacity="1" stroke="#0398fc" stroke-opacity="1"/>
            <rect id="Rectangle-11" fill="#ffffff" x="194.4781036376953" y="49.31181716918945" width="4.686219215393066" height="2.081429958343506" rx="1.040714979171753" fill-opacity="1" stroke="#0398fc" stroke-opacity="1"/>
            <rect id="Rectangle-11" fill="#ffffff" x="194.4781036376953" y="59.71896743774414" width="4.686219215393066" height="2.081429958343506" rx="1.040714979171753" fill-opacity="1" stroke="#0398fc" stroke-opacity="1"/>
            <rect id="Rectangle-11" fill="#ffffff" x="194.4781036376953" y="70.12611389160156" width="4.686219215393066" height="2.081429958343506" rx="1.040714979171753" fill-opacity="1" stroke="#0398fc" stroke-opacity="1"/>
            <rect id="Rectangle-11" fill="#ffffff" x="194.4781036376953" y="80.53326416015625" width="4.686219215393066" height="2.081429958343506" rx="1.040714979171753" fill-opacity="1" stroke="#0398fc" stroke-opacity="1"/>
            <rect id="Rectangle-11" fill="#ffffff" x="194.4781036376953" y="101.34756469726562" width="4.686219215393066" height="2.081429958343506" rx="1.040714979171753" fill-opacity="1" stroke="#0398fc" stroke-opacity="1"/>
            <rect id="Rectangle-11" fill="#ffffff" x="194.4781036376953" y="111.75471496582031" width="4.686219215393066" height="2.081429958343506" rx="1.040714979171753" fill-opacity="1" stroke="#0398fc" stroke-opacity="1"/>
            <rect id="Rectangle-11" fill="#ffffff" x="202.28846740722656" y="49.31181716918945" width="18.224185943603516" height="2.081429958343506" rx="1.040714979171753" fill-opacity="1" stroke="#0398fc" stroke-opacity="1"/>
            <rect id="Rectangle-11" fill="#ffffff" x="223.11610412597656" y="49.31181716918945" width="31.24146270751953" height="2.081429958343506" rx="1.040714979171753" fill-opacity="1" stroke="#0398fc" stroke-opacity="1"/>
            <rect id="Rectangle-11" fill="#ffffff" x="256.9610290527344" y="49.31181716918945" width="13.0172758102417" height="2.081429958343506" rx="1.040714979171753" fill-opacity="1" stroke="#0398fc" stroke-opacity="1"/>
            <rect id="Rectangle-11" fill="#ffffff" x="202.28846740722656" y="59.71896743774414" width="13.0172758102417" height="2.081429958343506" rx="1.040714979171753" fill-opacity="1" stroke="#0398fc" stroke-opacity="1"/>
            <rect id="Rectangle-11" fill="#ffffff" x="217.90919494628906" y="59.71896743774414" width="13.0172758102417" height="2.081429958343506" rx="1.040714979171753" fill-opacity="1" stroke="#0398fc" stroke-opacity="1"/>
            <rect id="Rectangle-11" fill="#ffffff" x="233.52993774414062" y="59.71896743774414" width="7.810365676879883" height="2.081429958343506" rx="1.040714979171753" fill-opacity="1" stroke="#0398fc" stroke-opacity="1"/>
            <rect id="Rectangle-11" fill="#ffffff" x="202.28846740722656" y="70.12611389160156" width="26.0345516204834" height="2.081429958343506" rx="1.040714979171753" fill-opacity="1" stroke="#0398fc" stroke-opacity="1"/>
            <rect id="Rectangle-11" fill="#ffffff" x="230.92648315429688" y="70.12611389160156" width="18.224185943603516" height="2.081429958343506" rx="1.040714979171753" fill-opacity="1" stroke="#0398fc" stroke-opacity="1"/>
            <rect id="Rectangle-11" fill="#ffffff" x="202.28846740722656" y="80.53326416015625" width="26.0345516204834" height="2.081429958343506" rx="1.040714979171753" fill-opacity="1" stroke="#0398fc" stroke-opacity="1"/>
            <rect id="Rectangle-11" fill="#ffffff" x="230.92648315429688" y="80.53326416015625" width="33.84491729736328" height="2.081429958343506" rx="1.040714979171753" fill-opacity="1" stroke="#0398fc" stroke-opacity="1"/>
            <rect id="Rectangle-11" fill="#ffffff" x="202.28846740722656" y="90.94041442871094" width="18.224185943603516" height="2.081429958343506" rx="1.040714979171753" fill-opacity="1" stroke="#0398fc" stroke-opacity="1"/>
            <rect id="Rectangle-11" fill="#ffffff" x="223.11610412597656" y="90.94041442871094" width="18.224185943603516" height="2.081429958343506" rx="1.040714979171753" fill-opacity="1" stroke="#0398fc" stroke-opacity="1"/>
            <rect id="Rectangle-11" fill="#ffffff" x="243.94375610351562" y="90.94041442871094" width="10.41382122039795" height="2.081429958343506" rx="1.040714979171753" fill-opacity="1" stroke="#0398fc" stroke-opacity="1"/>
            <rect id="Rectangle-11" fill="#ffffff" x="202.28846740722656" y="101.34756469726562" width="33.84491729736328" height="2.081429958343506" rx="1.040714979171753" fill-opacity="1" stroke="#0398fc" stroke-opacity="1"/>
            <rect id="Rectangle-11" fill="#ffffff" x="202.28846740722656" y="111.75471496582031" width="15.620731353759766" height="2.081429958343506" rx="1.040714979171753" fill-opacity="1" stroke="#0398fc" stroke-opacity="1"/>
            <path d="M414.991426,96.6643496 L557.659437,96.6643496 L557.659437,198.142937 C557.659437,202.162932 554.399545,205.419067 550.373649,205.419067 L422.277215,205.419067 C418.255898,205.419067 414.991426,202.157214 414.991426,198.142937 L414.991426,96.6643496 z" id="Case" stroke="#0398fc" stroke-width="2.08142999" fill="#ffffff" fill-opacity="1" stroke-opacity="1"/>
            <path d="M414.991426,90.9338775 C414.991426,86.9126798 418.251232,83.6554121 422.277215,83.6554121 L550.373649,83.6554121 C554.397843,83.6554121 557.659437,86.9124627 557.659437,90.9338775 L557.659437,98.7457795 L414.991426,98.7457795 L414.991426,90.9338775 z" id="Case" stroke="#0398fc" stroke-width="2.08142999" fill="#ffffff" fill-opacity="1" stroke-opacity="1"/>
            <ellipse id="Oval-5" fill="#ffffff" cx="426.18560791015625" cy="91.20059204101562" rx="2.343109607696533" ry="2.341608762741089" fill-opacity="1" stroke="#0398fc" stroke-opacity="1"/>
            <ellipse id="Oval-5" fill="#ffffff" cx="433.9959716796875" cy="91.20059204101562" rx="2.343109607696533" ry="2.341608762741089" fill-opacity="1" stroke="#0398fc" stroke-opacity="1"/>
            <ellipse id="Oval-5" fill="#ffffff" cx="441.80633544921875" cy="91.20059204101562" rx="2.343109607696533" ry="2.341608762741089" fill-opacity="1" stroke="#0398fc" stroke-opacity="1"/>
            <ellipse id="Oval-6" stroke="#0398fc" stroke-width="2.34160874" fill="#ffffff" cx="503.2478942871094" cy="151.0417022705078" rx="26.0345516204834" ry="26.01787567138672" fill-opacity="1" stroke-opacity="1"/>
            <path d="M500.383423,121.90168800000001 L500.383423,128.145978 L506.63305,128.145978 L506.63305,121.90168800000001 L500.383423,121.90168800000001 z" id="Rectangle-12" stroke="#0398fc" stroke-width="2.08142999" fill="#ffffff" fill-opacity="1" stroke-opacity="1"/>
            <path d="M500.123077,173.937438 L500.123077,180.181728 L506.372704,180.181728 L506.372704,173.937438 L500.123077,173.937438 z" id="Rectangle-12" stroke="#0398fc" stroke-width="2.08142999" fill="#ffffff" fill-opacity="1" stroke-opacity="1"/>
            <path d="M474.088525,148.179742 L474.088525,154.424032 L480.338152,154.424032 L480.338152,148.179742 L474.088525,148.179742 z" id="Rectangle-12" stroke="#0398fc" stroke-width="2.08142999" fill="#ffffff" fill-opacity="1" stroke-opacity="1"/>
            <path d="M525.897284,148.179742 L525.897284,154.424032 L532.146911,154.424032 L532.146911,148.179742 L525.897284,148.179742 z" id="Rectangle-12" stroke="#0398fc" stroke-width="2.08142999" fill="#ffffff" fill-opacity="1" stroke-opacity="1"/>
            <line x1="529.282470703125" y1="127.62561798095703" x2="529.282470703125" y2="147.13902282714844" id="Line" stroke="#0398fc" stroke-width="2.08142999" stroke-linecap="square"/>
            <line x1="529.282470703125" y1="154.9443817138672" x2="529.282470703125" y2="174.45779418945312" id="Line" stroke="#0398fc" stroke-width="2.08142999" stroke-linecap="square"/>
            <ellipse id="Oval-5" fill="#ffffff" cx="529.282470703125" cy="126.84508514404297" rx="3.1241462230682373" ry="3.122144937515259" fill-opacity="1" stroke="#0398fc" stroke-opacity="1"/>
            <ellipse id="Oval-5" fill="#ffffff" cx="529.282470703125" cy="176.279052734375" rx="3.1241462230682373" ry="3.122144937515259" fill-opacity="1" stroke="#0398fc" stroke-opacity="1"/>
            <g id="Group-60" fill="#ffffff" stroke="#0398fc" stroke-width="2.08142999" fill-opacity="1" stroke-opacity="1">
                <rect id="Rectangle-15" x="440.5039412975311" y="119.56007838249207" width="16.14275550842285" height="16.13108253479004" rx="3.122144937515259" fill="#ffffff" fill-opacity="1" stroke="#0398fc" stroke-opacity="1"/>
                <rect id="Rectangle-15" x="440.5039412975311" y="142.97616577148438" width="16.14275550842285" height="16.13108253479004" rx="3.122144937515259" fill="#ffffff" fill-opacity="1" stroke="#0398fc" stroke-opacity="1"/>
                <rect id="Rectangle-15" x="440.5039412975311" y="166.39225387573242" width="16.14275550842285" height="16.13108253479004" rx="3.122144937515259" fill="#ffffff" fill-opacity="1" stroke="#0398fc" stroke-opacity="1"/>
            </g>
            <ellipse id="Oval-8" stroke="#0398fc" stroke-width="2.08142999" fill="#ffffff" cx="632.3792724609375" cy="238.9821319580078" rx="15.620731353759766" ry="15.610724449157715" fill-opacity="1" stroke-opacity="1"/>
            <ellipse id="Oval-8" stroke="#0398fc" stroke-width="2.08142999" fill="#ffffff" cx="632.3792724609375" cy="238.9821319580078" rx="9.112092971801758" ry="9.106256484985352" fill-opacity="1" stroke-opacity="1"/>
            <ellipse id="Oval-8" stroke="#0398fc" stroke-width="2.08142999" fill="#ffffff" cx="611.5516357421875" cy="215.3058624267578" rx="5.206910610198975" ry="5.203575134277344" fill-opacity="1" stroke-opacity="1"/>
            <path d="M588.639887,214.004965 C588.065116,214.004965 587.599172,214.470909 587.599172,215.04568 L587.599172,258.75571 C587.599172,261.629565 589.928892,263.959285 592.802747,263.959285 L628.720118,263.959285 C631.593973,263.959285 633.923693,261.629565 633.923693,258.75571 L633.923693,215.04568 C633.923693,214.470909 633.457749,214.004965 632.882978,214.004965 L588.639887,214.004965 z" id="Rectangle-16" stroke="#0398fc" stroke-width="2.08142999" fill="#ffffff" fill-opacity="1" stroke-opacity="1"/>
            <rect id="Rectangle-16" stroke="#0398fc" stroke-width="2.08142999" fill="#ffffff" x="609.728515625" y="228.0546112060547" width="13.539300918579102" height="16.651439666748047" rx="3.122144937515259" fill-opacity="1" stroke-opacity="1"/>
            <line x1="616.3680419921875" y1="214.39523315429688" x2="616.3680419921875" y2="226.23336791992188" id="Line-2" stroke="#0398fc" stroke-width="2.08142999" stroke-linecap="square"/>
            <path d="M557.92045,263.699106 C566.547542,263.699106 573.541181,263.699106 573.541181,263.699106 C573.541181,255.077541 566.547542,248.088381 557.92045,248.088381 C549.293358,248.088381 542.299719,255.077541 542.299719,263.699106 C542.299719,263.699106 549.293358,263.699106 557.92045,263.699106 z" id="Oval-8" stroke="#0398fc" stroke-width="2.08142999" fill="#ffffff" fill-opacity="1" stroke-opacity="1"/>
            <rect id="Rectangle-11" fill="#ffffff" x="556.8790893554688" y="247.56802368164062" width="2.082764148712158" height="3.382323741912842" rx="1.041382074356079" fill-opacity="1" stroke="#0398fc" stroke-opacity="1"/>
            <path d="M16.391389,232.997886 C7.91344584,232.997886 1.040715,239.870617 1.040715,248.34856 C1.040715,256.826503 7.91344584,263.699234 16.391389,263.699234 L79.4070531,263.699234 C80.2692097,263.699234 80.9681256,263.000318 80.9681256,262.138161 L80.9681256,259.722169 C80.9681256,258.629844 80.123732,257.723351 79.0341503,257.64596900000004 C71.8803755,257.13786300000004 68.0805122,253.995245 68.0805122,248.34856 C68.0805122,242.701873 71.8803788,239.559254 79.0341596,239.05115 C80.1237345,238.973762 80.9681256,238.06727 80.9681256,236.974951 L80.9681256,234.558958 C80.9681256,233.696802 80.2692097,232.997886 79.4070531,232.997886 L16.391389,232.997886 z" id="Rectangle-17" stroke="#0398fc" stroke-width="2.08142999" fill="#ffffff" fill-opacity="1" stroke-opacity="1"/>
            <path d="M80.1864202,258.299762 C80.1864202,258.551575 79.9821545,258.75571 79.73018,258.75571 L79.73018,258.75571 L72.353427,258.75571 L16.1414223,258.75571 C10.3900278,258.75571 5.72760145,254.09627 5.72760145,248.34856 C5.72760145,242.60085 10.3900278,237.94141 16.1414223,237.94141 L72.353427,237.94141 L79.73018,237.94141 L79.73018,237.94141 C79.9821545,237.94141 80.1864202,238.145545 80.1864202,238.397358 " id="Rectangle-19" stroke="#0398fc" stroke-width="2.08142999" fill="#ffffff" fill-opacity="1" stroke-opacity="1"/>
            <rect id="Rectangle-18" fill="#ffffff" x="14.0586576461792" y="243.92552185058594" width="54.67255783081055" height="2.081429958343506" rx="1.040714979171753" fill-opacity="1" stroke="#0398fc" stroke-opacity="1"/>
            <rect id="Rectangle-18" fill="#ffffff" x="14.0586576461792" y="250.42999267578125" width="54.67255783081055" height="2.081429958343506" rx="1.040714979171753" fill-opacity="1" stroke="#0398fc" stroke-opacity="1"/>
            <path d="M65.1265421,181.055093 C63.848875,179.91993 62.5712079,178.784766 61.2935408,177.649603 C59.2574411,175.842608 57.2271756,174.029822 55.1910759,172.222827 C54.7243482,171.81162 54.2576205,171.394621 53.7967269,170.983414 C53.7967269,171.527829 53.7967269,172.078035 53.7967269,172.622451 C55.074394,171.487287 56.3520611,170.352124 57.6297282,169.21696 C59.665827900000004,167.409965 61.6960934,165.597179 63.7321931,163.790184 C64.1989208,163.378977 64.6656485,162.961978 65.1265421,162.550771 C65.5816017,162.145355 65.5757676,161.317149 65.1265421,160.911734 C64.6423121,160.465777 63.965557,160.47736 63.4754929,160.911734 C62.1978257,162.046897 60.9201586,163.182061 59.6424915,164.317224 C57.6063919,166.124219 55.5761263,167.937006 53.5400267,169.744 C53.0732989,170.155208 52.6065712,170.572206 52.1456776,170.983414 C51.6964522,171.383037 51.6964522,172.222827 52.1456776,172.622451 C53.4233447,173.757614 54.7010118,174.892778 55.978679,176.027941 C58.0147786,177.834936 60.0450442,179.647722 62.0811438,181.454717 C62.5478715,181.865924 63.0145992,182.282923 63.4754929,182.69413 C63.9305524,183.099546 64.6831508,183.174837 65.1265421,182.69413 C65.5349289,182.253965 65.6107721,181.489467 65.1265421,181.055093 L65.1265421,181.055093 z" id="Shape" fill="#ffffff" fill-rule="nonzero" fill-opacity="1" stroke="#0398fc" stroke-opacity="1"/>
            <path d="M84.5825817,162.553526 C85.8602488,163.688689 87.1379159,164.823853 88.415583,165.959016 C90.4516827,167.766011 92.4819482,169.578798 94.5180479,171.385793 C94.9847756,171.797 95.4515033,172.213999 95.9123969,172.625206 C95.9123969,172.080791 95.9123969,171.530584 95.9123969,170.986169 C94.6347298,172.121332 93.3570627,173.256496 92.0793956,174.391659 C90.0432959,176.198654 88.0130304,178.011441 85.9769307,179.818435 C85.510203,180.229643 85.0434753,180.646641 84.5825817,181.057849 C84.1275221,181.463264 84.1333562,182.29147 84.5825817,182.696886 C85.0668117,183.142843 85.7435668,183.131259 86.2336309,182.696886 C87.5112981,181.561722 88.7889652,180.426559 90.0666323,179.291395 C92.1027319,177.4844 94.1329975,175.671614 96.1690971,173.864619 C96.6358249,173.453412 97.1025526,173.036413 97.5634462,172.625206 C98.0126716,172.225582 98.0126716,171.385793 97.5634462,170.986169 C96.2857791,169.851005 95.008112,168.715842 93.7304448,167.580678 C91.6943452,165.773684 89.6640796,163.960897 87.62798,162.153902 C87.1612523,161.742695 86.6945246,161.325696 86.2336309,160.914489 C85.7785714,160.509074 85.025973,160.433782 84.5825817,160.914489 C84.1741949,161.354654 84.0983517,162.119152 84.5825817,162.553526 L84.5825817,162.553526 z" id="Shape" fill="#ffffff" fill-rule="nonzero" fill-opacity="1" stroke="#0398fc" stroke-opacity="1"/>
            <path d="M70.6937286,187.875712 C71.0437744,186.833215 71.3879861,185.790718 71.7380319,184.74243 C72.5723077,182.234645 73.4065835,179.732652 74.2408593,177.224868 C75.2443239,174.201626 76.2477884,171.184177 77.2570871,168.160935 C78.1263675,165.548901 78.9956479,162.936867 79.8649282,160.324832 C80.2791491,159.056461 80.7458768,157.793881 81.1309271,156.508135 C81.1367612,156.49076 81.1425953,156.473385 81.1484294,156.45601 C81.3409546,155.882637 80.9267338,155.164472 80.3316559,155.031264 C79.6899053,154.886473 79.1006616,155.222388 78.8964682,155.842095 C78.5464224,156.884592 78.2022107,157.927089 77.852165,158.975378 C77.0178892,161.483162 76.1836134,163.985155 75.3493376,166.49294 C74.345873,169.516181 73.3424084,172.533631 72.3331097,175.556872 C71.4638294,178.168907 70.594549,180.780941 69.7252686,183.392975 C69.3110478,184.655555 68.8443201,185.918135 68.4592697,187.203881 C68.4534356,187.221256 68.4476015,187.238631 68.4417674,187.256006 C68.2492422,187.829379 68.6634631,188.547544 69.2585409,188.680752 C69.9002915,188.825543 70.4895353,188.489627 70.6937286,187.875712 L70.6937286,187.875712 z" id="Shape" fill="#ffffff" fill-rule="nonzero" fill-opacity="1" stroke="#0398fc" stroke-opacity="1"/>
        </g>
    </g></g></svg>