<svg xmlns="http://www.w3.org/2000/svg" xmlns:xlink="http://www.w3.org/1999/xlink" width="500" height="462" version="1.1"><rect id="backgroundrect" width="100%" height="100%" x="0" y="0" fill="none" stroke="none"/>
    <!-- Generator: Sketch 59 (86127) - https://sketch.com -->
    <title>Shape</title>
    <desc>Created with Sketch.</desc>
    
<g class="currentLayer" style=""><title>Layer 1</title><g id="Brand-v2" stroke="#0398fc" stroke-width="1" fill="#0398fc" fill-rule="evenodd" class="selected" stroke-opacity="1" fill-opacity="1">
        <path d="M430.426015,317.22988499999997 C404.965969,317.22988499999997 381.522561,303.321839 369.296698,280.816092 L332.114948,212.413793 L300.857071,270.44827599999996 C285.228132,301.298851 241.366272,305.344828 225.485253,274.62068999999997 L192.714898,211.275862 L143.307285,303.068966 L84.0685657,303.44827599999996 L154.902949,168.66666700000002 C169.901689,140.091954 210.360474,139.586207 226.241492,167.655172 L261.532644,230.367816 L295.815478,167.781609 C311.192337,139.712644 351.525082,139.586207 366.901941,167.655172 L414.923116,254.643678 C423.619864,270.44827599999996 447.441391,264.252874 447.441391,246.298851 L447.567431,130.609195 C447.567431,87.62069000000002 412.654399,52.59770099999997 369.800857,52.59770099999997 L130.451223,52.59770099999997 C87.5976809,52.59770099999997 52.6846483,87.62069000000002 52.6846483,130.609195 L52.6846483,331.137931 C52.6846483,374.12643679999996 87.5976809,409.1494253 130.451223,409.1494253 L451.600706,409.1494253 L451.600706,462 L130.451223,462 C58.4824805,462 0,403.3333333 0,331.137931 L0,130.86206900000002 C0,58.54023000000001 58.3564406,0 130.451223,0 L369.548777,0 C441.643559,0 500,58.54023000000001 500,130.86206900000002 L500,238.83908 L500,247.436782 C500,286 468.868162,317.22988499999997 430.426015,317.22988499999997 z" id="Shape" fill="#0398fc" fill-rule="nonzero" stroke="#0398fc"/>
    </g></g></svg>